<?xml version="1.0" standalone="no"?>
<!DOCTYPE svg PUBLIC "-//W3C//DTD SVG 20010904//EN"
 "http://www.w3.org/TR/2001/REC-SVG-20010904/DTD/svg10.dtd">
<svg version="1.0" xmlns="http://www.w3.org/2000/svg"
 width="250.000000pt" height="250.000000pt" viewBox="0 0 250.000000 250.000000"
 preserveAspectRatio="xMidYMid meet">
<metadata>
Created by potrace 1.14, written by Peter Selinger 2001-2017
</metadata>
<g transform="translate(0.000000,250.000000) scale(0.100000,-0.100000)"
fill="#000000" stroke="none">
<path d="M1206 2493 c-2 -2 -32 -6 -67 -8 -87 -5 -152 -15 -166 -27 -6 -5 -17
-8 -25 -7 -7 1 -20 0 -28 -4 -8 -3 -40 -13 -70 -23 -47 -15 -207 -91 -265
-127 -38 -23 -150 -111 -190 -149 -42 -40 -74 -48 -95 -23 -6 8 -15 14 -18 13
-4 -1 -15 2 -24 5 -43 17 -54 20 -63 23 -39 10 -76 16 -112 20 -40 5 -43 4
-49 -23 -4 -15 -12 -34 -18 -42 -7 -9 -11 -63 -10 -145 1 -124 2 -136 36 -225
l35 -93 -24 -91 c-13 -50 -26 -113 -30 -141 -8 -67 -8 -265 1 -341 14 -124 17
-142 42 -225 15 -47 25 -87 24 -89 -1 -2 2 -7 7 -10 4 -3 16 -23 26 -44 9 -21
22 -43 27 -50 6 -7 31 -43 57 -82 26 -38 52 -75 57 -82 6 -6 22 -26 36 -44 25
-32 58 -66 162 -165 50 -48 158 -124 177 -124 5 0 14 -7 21 -15 7 -9 15 -13
18 -10 3 3 12 -1 21 -8 18 -15 122 -56 181 -72 3 -1 12 -4 20 -8 20 -8 119
-30 150 -34 204 -23 363 -19 450 14 8 3 24 8 34 10 11 2 26 8 33 15 7 6 16 8
19 5 6 -6 114 30 132 45 6 6 12 7 12 4 0 -9 174 82 198 103 10 9 29 23 44 31
41 24 86 61 152 125 62 62 136 147 136 158 0 4 8 16 18 27 54 64 152 280 178
395 5 21 10 44 19 85 34 156 23 383 -26 549 -20 65 -24 76 -49 136 -8 17 -14
35 -15 40 -2 6 -17 35 -34 65 -18 30 -35 63 -38 73 -3 9 -9 17 -14 17 -5 0 -9
7 -9 15 0 8 -4 15 -10 15 -5 0 -10 5 -10 11 0 16 -73 103 -142 171 -56 55
-186 157 -238 187 -56 32 -136 73 -150 77 -8 2 -46 14 -85 28 -109 38 -146 47
-197 49 -27 1 -48 5 -48 8 0 4 -21 7 -47 8 -27 1 -72 3 -101 5 -29 1 -54 1
-56 -1z"/>
</g>
</svg>
